<svg width="1536" height="1536" viewBox="0 0 1536 1536" fill="none" xmlns="http://www.w3.org/2000/svg">
<g clip-path="url(#clip0_103_2)">
<path d="M1024 768C1024 697.333 999 637 949 587C899 537 838.667 512 768 512C697.333 512 637 537 587 587C537 637 512 697.333 512 768C512 838.667 537 899 587 949C637 999 697.333 1024 768 1024C838.667 1024 899 999 949 949C999 899 1024 838.667 1024 768ZM1536 659V881C1536 889 1533.33 896.667 1528 904C1522.67 911.333 1516 915.667 1508 917L1323 945C1310.33 981 1297.33 1011.33 1284 1036C1307.33 1069.33 1343 1115.33 1391 1174C1397.67 1182 1401 1190.33 1401 1199C1401 1207.67 1398 1215.33 1392 1222C1374 1246.67 1341 1282.67 1293 1330C1245 1377.33 1213.67 1401 1199 1401C1191 1401 1182.33 1398 1173 1392L1035 1284C1005.67 1299.33 975.333 1312 944 1322C933.333 1412.67 923.667 1474.67 915 1508C910.333 1526.67 898.333 1536 879 1536H657C647.667 1536 639.5 1533.17 632.5 1527.5C625.5 1521.83 621.667 1514.67 621 1506L593 1322C560.333 1311.33 530.333 1299 503 1285L362 1392C355.333 1398 347 1401 337 1401C327.667 1401 319.333 1397.33 312 1390C228 1314 173 1258 147 1222C142.333 1215.33 140 1207.67 140 1199C140 1191 142.667 1183.33 148 1176C158 1162 175 1139.83 199 1109.5C223 1079.17 241 1055.67 253 1039C235 1005.67 221.333 972.667 212 940L29 913C20.3333 911.667 13.3333 907.5 8 900.5C2.66667 893.5 0 885.667 0 877V655C0 647 2.66667 639.333 8 632C13.3333 624.667 19.6667 620.333 27 619L213 591C222.333 560.333 235.333 529.667 252 499C225.333 461 189.667 415 145 361C138.333 353 135 345 135 337C135 330.333 138 322.667 144 314C161.333 290 194.167 254.167 242.5 206.5C290.833 158.833 322.333 135 337 135C345.667 135 354.333 138.333 363 145L501 252C530.333 236.667 560.667 224 592 214C602.667 123.333 612.333 61.3333 621 28C625.667 9.33333 637.667 0 657 0H879C888.333 0 896.5 2.83333 903.5 8.5C910.5 14.1667 914.333 21.3333 915 30L943 214C975.667 224.667 1005.67 237 1033 251L1175 144C1181 138 1189 135 1199 135C1207.67 135 1216 138.333 1224 145C1310 224.333 1365 281 1389 315C1393.67 320.333 1396 327.667 1396 337C1396 345 1393.33 352.667 1388 360C1378 374 1361 396.167 1337 426.5C1313 456.833 1295 480.333 1283 497C1300.33 530.333 1314 563 1324 595L1507 623C1515.67 624.333 1522.67 628.5 1528 635.5C1533.33 642.5 1536 650.333 1536 659Z" fill="white"/>
</g>
<defs>
<clipPath id="clip0_103_2">
<rect width="1536" height="1536" fill="white"/>
</clipPath>
</defs>
</svg>
