<svg width="24" height="24" viewBox="0 0 24 24" fill="none" xmlns="http://www.w3.org/2000/svg">
<path d="M10.186 2.13908C10.3558 2.24278 10.4774 2.40966 10.5241 2.60301C10.5708 2.79636 10.5387 3.00034 10.435 3.17008C10.3586 3.29469 10.3264 3.44142 10.3437 3.58657C10.3609 3.73173 10.4266 3.86684 10.53 3.97008L10.628 4.06708C11.216 4.65608 11.433 5.52108 11.193 6.31708C11.1336 6.50504 11.0025 6.66203 10.8281 6.75407C10.6538 6.84612 10.4502 6.86581 10.2615 6.80889C10.0727 6.75198 9.91396 6.62303 9.81956 6.44995C9.72516 6.27688 9.7027 6.07359 9.75705 5.88408C9.79681 5.75267 9.80014 5.61294 9.76668 5.47978C9.73321 5.34663 9.66421 5.22507 9.56705 5.12808L9.47005 5.03008C9.12879 4.68884 8.91225 4.24271 8.8553 3.76348C8.79834 3.28426 8.90427 2.7998 9.15605 2.38808C9.20732 2.30395 9.27466 2.23075 9.35422 2.17265C9.43378 2.11456 9.52401 2.07271 9.61976 2.04949C9.7155 2.02628 9.81488 2.02215 9.91222 2.03735C10.0096 2.05255 10.1029 2.08678 10.187 2.13808L10.186 2.13908ZM17.69 4.72108C17.885 4.76039 18.0563 4.87549 18.1663 5.04107C18.2764 5.20664 18.3162 5.40915 18.277 5.60408L18.133 6.32408C17.935 7.31408 17.221 8.12408 16.263 8.44308C15.815 8.59308 15.481 8.97008 15.389 9.43308L15.245 10.1531C15.2061 10.3481 15.0912 10.5197 14.9257 10.6301C14.7602 10.7405 14.5576 10.7806 14.3625 10.7416C14.1675 10.7026 13.9959 10.5877 13.8855 10.4222C13.7752 10.2567 13.7351 10.0541 13.774 9.85908L13.918 9.13908C14.116 8.14808 14.83 7.33908 15.788 7.01908C16.236 6.87108 16.57 6.49308 16.663 6.02908L16.806 5.30908C16.8254 5.21248 16.8636 5.12065 16.9184 5.03881C16.9733 4.95698 17.0437 4.88676 17.1257 4.83216C17.2077 4.77755 17.2997 4.73964 17.3963 4.72058C17.493 4.70152 17.5925 4.70169 17.689 4.72108H17.69ZM21.409 13.5601C21.2319 13.4826 21.0362 13.4574 20.8452 13.4875C20.6542 13.5176 20.4758 13.6018 20.331 13.7301C19.9363 14.0799 19.4415 14.2966 18.9167 14.3496C18.3919 14.4025 17.8637 14.289 17.407 14.0251L17.194 13.9031C17.0217 13.8036 16.8958 13.6398 16.8443 13.4475C16.7927 13.2553 16.8196 13.0505 16.919 12.8781C17.0185 12.7057 17.1824 12.5799 17.3746 12.5283C17.5668 12.4767 17.7717 12.5036 17.944 12.6031L18.157 12.7261C18.535 12.9441 19.009 12.8961 19.336 12.6071C19.6949 12.2891 20.1373 12.0803 20.6109 12.0056C21.0845 11.9308 21.5697 11.9931 22.009 12.1851L22.301 12.3121C22.4834 12.3918 22.6266 12.5406 22.6992 12.7259C22.7717 12.9112 22.7677 13.1177 22.688 13.3001C22.6083 13.4824 22.4595 13.6256 22.2742 13.6982C22.0889 13.7708 21.8824 13.7668 21.7 13.6871L21.409 13.5591V13.5601ZM6.92805 3.94008C6.97795 3.89031 7.03717 3.85085 7.10232 3.82397C7.16747 3.79708 7.23728 3.78329 7.30776 3.78339C7.37824 3.78348 7.44801 3.79745 7.51309 3.82451C7.57817 3.85157 7.63728 3.89118 7.68705 3.94108C7.73682 3.99098 7.77627 4.0502 7.80316 4.11535C7.83005 4.1805 7.84384 4.25031 7.84374 4.32079C7.84365 4.39127 7.82968 4.46104 7.80262 4.52612C7.77556 4.5912 7.73595 4.65031 7.68605 4.70008C7.58527 4.8006 7.44868 4.85696 7.30634 4.85677C7.164 4.85659 7.02757 4.79986 6.92705 4.69908C6.82653 4.5983 6.77017 4.46171 6.77035 4.31937C6.77054 4.17703 6.82727 4.0406 6.92805 3.94008ZM12.916 7.15708C12.8662 7.10724 12.807 7.06771 12.7419 7.04074C12.6768 7.01377 12.607 6.99989 12.5365 6.99989C12.4661 6.99989 12.3963 7.01377 12.3312 7.04074C12.266 7.06771 12.2069 7.10724 12.157 7.15708C12.1072 7.20692 12.0677 7.26608 12.0407 7.3312C12.0137 7.39631 11.9999 7.4661 11.9999 7.53658C11.9999 7.60706 12.0137 7.67685 12.0407 7.74196C12.0677 7.80708 12.1072 7.86624 12.157 7.91608C12.207 7.96592 12.2662 8.00544 12.3314 8.03238C12.3965 8.05933 12.4664 8.07317 12.5369 8.07313C12.6074 8.07308 12.6773 8.05914 12.7424 8.03211C12.8075 8.00508 12.8667 7.96548 12.9165 7.91558C12.9664 7.86568 13.0059 7.80645 13.0329 7.74127C13.0598 7.6761 13.0736 7.60625 13.0736 7.53573C13.0735 7.4652 13.0596 7.39537 13.0326 7.33023C13.0055 7.26509 12.966 7.20692 12.916 7.15708ZM17.157 10.1571C17.2068 10.1072 17.2659 10.0677 17.331 10.0407C17.396 10.0137 17.4658 9.99979 17.5362 9.99974C17.6066 9.99969 17.6764 10.0135 17.7415 10.0404C17.8066 10.0673 17.8657 10.1068 17.9155 10.1566C17.9654 10.2064 18.0049 10.2655 18.0319 10.3305C18.0589 10.3956 18.0728 10.4653 18.0729 10.5357C18.0729 10.6062 18.0591 10.6759 18.0322 10.741C18.0053 10.8061 17.9658 10.8652 17.916 10.9151C17.8155 11.0157 17.6791 11.0723 17.5369 11.0724C17.3947 11.0725 17.2582 11.0161 17.1575 10.9156C17.0569 10.8151 17.0003 10.6787 17.0002 10.5364C17.0001 10.3942 17.0565 10.2577 17.157 10.1571ZM19.817 15.3131C19.7164 15.2124 19.5799 15.1559 19.4375 15.1559C19.2952 15.1559 19.1587 15.2124 19.058 15.3131C18.9574 15.4137 18.9009 15.5502 18.9009 15.6926C18.9009 15.8349 18.9574 15.9714 19.058 16.0721C19.1079 16.1219 19.167 16.1614 19.2322 16.1884C19.2973 16.2154 19.3671 16.2293 19.4375 16.2293C19.508 16.2293 19.5778 16.2154 19.6429 16.1884C19.708 16.1614 19.7672 16.1219 19.817 16.0721C19.8669 16.0222 19.9064 15.9631 19.9334 15.898C19.9604 15.8328 19.9742 15.7631 19.9742 15.6926C19.9742 15.6221 19.9604 15.5523 19.9334 15.4872C19.9064 15.4221 19.8669 15.3629 19.817 15.3131ZM7.47205 20.2411C5.21005 20.9871 4.01805 21.2991 3.35905 20.6401C2.62905 19.9101 3.09005 18.5271 4.01205 15.7621L5.70205 10.6931C6.33405 8.79708 6.70505 7.68308 7.32405 7.23108L7.31905 7.25708C7.26959 7.49975 7.22358 7.7431 7.18105 7.98708C7.06532 8.63137 6.96196 9.27782 6.87105 9.92608C6.65505 11.4591 6.45605 13.4181 6.55905 14.9831C6.62105 15.9301 6.81805 17.1051 6.99405 18.0231C7.09043 18.5256 7.19445 19.0267 7.30605 19.5261L7.32605 19.6191L7.47205 20.2411ZM13.039 18.3861L13.306 18.2971C15.604 17.5311 16.753 17.1481 16.966 16.2421C17.181 15.3361 16.324 14.4791 14.611 12.7661L12.922 11.0771L12.917 11.0921L12.835 11.3591C12.767 11.5891 12.675 11.9091 12.584 12.2751C12.397 13.0241 12.227 13.8971 12.227 14.5551C12.227 15.2131 12.397 16.0861 12.584 16.8351C12.6897 17.2563 12.8084 17.6742 12.94 18.0881L12.945 18.1051L12.947 18.1091L13.039 18.3861ZM8.80005 7.50408L8.85005 7.25908C9.46305 7.61908 10.189 8.34408 11.232 9.38808L11.735 9.89008L11.523 10.5301L11.513 10.5581C11.3705 11.0053 11.2421 11.4568 11.128 11.9121C10.936 12.6811 10.727 13.7031 10.727 14.5551C10.727 15.4071 10.937 16.4291 11.128 17.1981C11.2421 17.6534 11.3705 18.1049 11.513 18.5521L11.616 18.8611L8.90105 19.7661L8.79405 19.3061L8.78905 19.2841L8.76905 19.1971L8.69605 18.8671C8.63605 18.5851 8.55305 18.1911 8.46605 17.7411C8.29305 16.8341 8.11105 15.7351 8.05605 14.8851C7.96305 13.4811 8.14305 11.6491 8.35605 10.1351C8.47799 9.27075 8.6227 8.40978 8.79005 7.55308L8.79705 7.51608L8.79905 7.50608V7.50408H8.80005ZM14.954 2.21008C15.105 2.19008 15.382 2.18008 15.601 2.40008C15.821 2.62008 15.811 2.89608 15.791 3.04808C15.764 3.21016 15.7259 3.37019 15.677 3.52708L15.641 3.65308L15.706 3.75508C15.793 3.89408 15.887 4.04308 15.945 4.17508C16.01 4.32508 16.084 4.57708 15.945 4.84108C15.808 5.10108 15.563 5.18708 15.408 5.22208C15.266 5.25408 15.089 5.26808 14.921 5.28208L14.794 5.29208H14.783L14.691 5.40408C14.581 5.53708 14.468 5.67508 14.361 5.77408C14.247 5.87708 14.033 6.03708 13.736 5.99708C13.429 5.95508 13.269 5.73208 13.192 5.59308C13.1189 5.44904 13.0561 5.3 13.004 5.14708L12.964 5.03708L12.854 4.99708C12.7014 4.94554 12.5527 4.88305 12.409 4.81008C12.269 4.73208 12.047 4.57308 12.005 4.26608C11.965 3.96808 12.125 3.75508 12.228 3.64108C12.326 3.53408 12.465 3.42108 12.598 3.31108L12.71 3.21908V3.20908L12.72 3.08108C12.733 2.91208 12.747 2.73508 12.78 2.59408C12.815 2.43808 12.9 2.19408 13.16 2.05708C13.425 1.91708 13.677 1.99208 13.826 2.05708C13.959 2.11408 14.108 2.20808 14.246 2.29608L14.349 2.36008L14.475 2.32508C14.639 2.27808 14.81 2.22908 14.954 2.21008ZM22.14 10.4921C22.607 10.0251 22.78 9.39608 22.524 8.84208C22.329 8.42208 21.937 8.14908 21.454 8.04608C21.352 7.56308 21.078 7.17108 20.658 6.97608C20.104 6.72108 19.475 6.89308 19.008 7.36108C18.738 7.63108 18.615 7.99408 18.558 8.31808C18.498 8.64808 18.498 8.99808 18.517 9.30408C18.5421 9.67945 18.5966 10.0523 18.68 10.4191C18.725 10.5991 18.872 10.7691 19.052 10.8131H19.054L19.081 10.8201C19.1859 10.8454 19.2917 10.8671 19.398 10.8851C19.603 10.9211 19.887 10.9641 20.196 10.9831C20.502 11.0031 20.852 11.0021 21.182 10.9431C21.506 10.8861 21.869 10.7631 22.14 10.4931V10.4921Z" fill="white"/>
</svg>
